# xmcd
#
# Track frame offsets:
#	150
#	14707
#	37352
#	58375
#	76484
#	94454
#	118574
#	137843
#	160504
#	178752
#	204150
#
# Disc length: 2914 seconds
#
# Revision: 3
# Processed by: cddbd v1.4PL0 Copyright (c) Steve Scherf et al.
# Submitted via: MusicWizard 6.0.2
#
DISCID=9e0b600b
DTITLE=Macy Gray - On How Life Is
DYEAR=2003
DGENRE=Blues
TTITLE0=Why Didn't You Call Me
TTITLE1=Do Something
TTITLE2=Caligula
TTITLE3=I Try
TTITLE4=Sex-O-Matic Venus Freak
TTITLE5=I Can't Wait To Meetchu
TTITLE6=Still
TTITLE7=I've Committed Murder
TTITLE8=A Momment To Myself
TTITLE9=The Letter
TTITLE10=Rather Hazy
EXTD=This is the Australian Version of the cd it has a bonus track, probably why it didnt show up 
EXTD=for me..\nsubmitted by spathi@darktidez.penguinpowered.com ID3G:   0
EXTT0=
EXTT1=
EXTT2=
EXTT3=
EXTT4=
EXTT5=
EXTT6=
EXTT7=
EXTT8=
EXTT9=
EXTT10=this is only on the australian version of the cd!
PLAYORDER=
